<?xml version="1.0" encoding="UTF-8"?>
<svg xmlns="http://www.w3.org/2000/svg" xmlns:xlink="http://www.w3.org/1999/xlink" width="320" height="192" viewBox="0 0 320 192">
<rect x="-32" y="-19.2" width="384" height="230.4" fill="rgb(0%, 0%, 0%)" fill-opacity="1"/>
<path fill-rule="nonzero" fill="rgb(100%, 100%, 100%)" fill-opacity="1" d="M 54.398438 32 C 54.398438 44.371094 44.371094 54.398438 32 54.398438 C 19.628906 54.398438 9.601562 44.371094 9.601562 32 C 9.601562 19.628906 19.628906 9.601562 32 9.601562 C 44.371094 9.601562 54.398438 19.628906 54.398438 32 "/>
<path fill-rule="nonzero" fill="rgb(100%, 100%, 100%)" fill-opacity="1" d="M 118.398438 32 C 118.398438 44.371094 108.371094 54.398438 96 54.398438 C 83.628906 54.398438 73.601562 44.371094 73.601562 32 C 73.601562 19.628906 83.628906 9.601562 96 9.601562 C 108.371094 9.601562 118.398438 19.628906 118.398438 32 "/>
<path fill-rule="nonzero" fill="rgb(100%, 100%, 100%)" fill-opacity="1" d="M 182.398438 32 C 182.398438 44.371094 172.371094 54.398438 160 54.398438 C 147.628906 54.398438 137.601562 44.371094 137.601562 32 C 137.601562 19.628906 147.628906 9.601562 160 9.601562 C 172.371094 9.601562 182.398438 19.628906 182.398438 32 "/>
<path fill-rule="nonzero" fill="rgb(100%, 100%, 100%)" fill-opacity="1" d="M 246.398438 32 C 246.398438 44.371094 236.371094 54.398438 224 54.398438 C 211.628906 54.398438 201.601562 44.371094 201.601562 32 C 201.601562 19.628906 211.628906 9.601562 224 9.601562 C 236.371094 9.601562 246.398438 19.628906 246.398438 32 "/>
<path fill-rule="nonzero" fill="rgb(100%, 100%, 100%)" fill-opacity="1" d="M 310.398438 32 C 310.398438 44.371094 300.371094 54.398438 288 54.398438 C 275.628906 54.398438 265.601562 44.371094 265.601562 32 C 265.601562 19.628906 275.628906 9.601562 288 9.601562 C 300.371094 9.601562 310.398438 19.628906 310.398438 32 "/>
<path fill="none" stroke-width="0.2" stroke-linecap="butt" stroke-linejoin="miter" stroke="rgb(100%, 100%, 100%)" stroke-opacity="1" stroke-miterlimit="10" d="M 0.25 0.25 L 0.75 0.75 M 0.75 0.25 L 0.25 0.75 " transform="matrix(64, 0, 0, 64, 0, 64)"/>
<path fill-rule="nonzero" fill="rgb(100%, 100%, 100%)" fill-opacity="1" d="M 118.398438 96 C 118.398438 108.371094 108.371094 118.398438 96 118.398438 C 83.628906 118.398438 73.601562 108.371094 73.601562 96 C 73.601562 83.628906 83.628906 73.601562 96 73.601562 C 108.371094 73.601562 118.398438 83.628906 118.398438 96 "/>
<path fill-rule="nonzero" fill="rgb(100%, 100%, 100%)" fill-opacity="1" d="M 182.398438 96 C 182.398438 108.371094 172.371094 118.398438 160 118.398438 C 147.628906 118.398438 137.601562 108.371094 137.601562 96 C 137.601562 83.628906 147.628906 73.601562 160 73.601562 C 172.371094 73.601562 182.398438 83.628906 182.398438 96 "/>
<path fill-rule="nonzero" fill="rgb(100%, 100%, 100%)" fill-opacity="1" d="M 246.398438 96 C 246.398438 108.371094 236.371094 118.398438 224 118.398438 C 211.628906 118.398438 201.601562 108.371094 201.601562 96 C 201.601562 83.628906 211.628906 73.601562 224 73.601562 C 236.371094 73.601562 246.398438 83.628906 246.398438 96 "/>
<path fill="none" stroke-width="0.2" stroke-linecap="butt" stroke-linejoin="miter" stroke="rgb(100%, 100%, 100%)" stroke-opacity="1" stroke-miterlimit="10" d="M 0.25 0.25 L 0.75 0.75 M 0.75 0.25 L 0.25 0.75 " transform="matrix(64, 0, 0, 64, 256, 64)"/>
<path fill-rule="nonzero" fill="rgb(100%, 100%, 100%)" fill-opacity="1" d="M 54.398438 160 C 54.398438 172.371094 44.371094 182.398438 32 182.398438 C 19.628906 182.398438 9.601562 172.371094 9.601562 160 C 9.601562 147.628906 19.628906 137.601562 32 137.601562 C 44.371094 137.601562 54.398438 147.628906 54.398438 160 "/>
<path fill-rule="nonzero" fill="rgb(100%, 100%, 100%)" fill-opacity="1" d="M 118.398438 160 C 118.398438 172.371094 108.371094 182.398438 96 182.398438 C 83.628906 182.398438 73.601562 172.371094 73.601562 160 C 73.601562 147.628906 83.628906 137.601562 96 137.601562 C 108.371094 137.601562 118.398438 147.628906 118.398438 160 "/>
<path fill-rule="nonzero" fill="rgb(100%, 100%, 100%)" fill-opacity="1" d="M 182.398438 160 C 182.398438 172.371094 172.371094 182.398438 160 182.398438 C 147.628906 182.398438 137.601562 172.371094 137.601562 160 C 137.601562 147.628906 147.628906 137.601562 160 137.601562 C 172.371094 137.601562 182.398438 147.628906 182.398438 160 "/>
<path fill-rule="nonzero" fill="rgb(100%, 100%, 100%)" fill-opacity="1" d="M 246.398438 160 C 246.398438 172.371094 236.371094 182.398438 224 182.398438 C 211.628906 182.398438 201.601562 172.371094 201.601562 160 C 201.601562 147.628906 211.628906 137.601562 224 137.601562 C 236.371094 137.601562 246.398438 147.628906 246.398438 160 "/>
<path fill-rule="nonzero" fill="rgb(100%, 100%, 100%)" fill-opacity="1" d="M 310.398438 160 C 310.398438 172.371094 300.371094 182.398438 288 182.398438 C 275.628906 182.398438 265.601562 172.371094 265.601562 160 C 265.601562 147.628906 275.628906 137.601562 288 137.601562 C 300.371094 137.601562 310.398438 147.628906 310.398438 160 "/>
</svg>
